<svg width="166" height="29" viewBox="0 0 166 29" fill="none" xmlns="http://www.w3.org/2000/svg">
<g clip-path="url(#clip0)">
<path d="M11.6101 28.5423C9.70309 28.3135 7.9083 27.6843 6.28177 26.6547C3.0848 24.5956 1.00957 21.1636 0.280436 17.4457C0.112174 16.4733 0 15.3865 0 14.357C0 6.40629 6.28177 0 14.0779 0C12.4514 0 10.7687 0.629189 9.53483 1.94477C7.0109 4.51872 7.0109 8.69425 9.53483 11.2682C9.53483 11.2682 22.1545 24.138 22.2105 24.1952C22.2666 24.2524 21.4814 25.2248 21.4253 25.282C20.6401 26.14 19.6866 26.8835 18.621 27.3983C16.4336 28.4279 13.9657 28.8283 11.6101 28.5423Z" fill="#2E48CA"/>
<path d="M9.42273 11.2683C6.8988 8.69436 6.8988 4.51883 9.42273 1.94487C11.9467 -0.629085 16.041 -0.629085 18.565 1.94487C21.0889 4.51883 21.0889 8.69436 18.565 11.2683V11.3255L14.8632 7.55038C13.6293 6.292 11.554 6.292 10.3201 7.55038C9.08621 8.80875 9.08621 10.9251 10.3201 12.1835L9.42273 11.2683Z" fill="#FBA919"/>
<path d="M16.8262 3.77507C16.8262 4.51866 16.2092 5.14785 15.424 5.14785C14.6948 5.14785 14.0779 4.51866 14.0779 3.77507C14.0779 3.03148 14.6948 2.40229 15.424 2.40229C16.2092 2.3451 16.8262 2.97429 16.8262 3.77507Z" fill="#2E48CA"/>
<path d="M12.6866 13.4416L25.1833 18.4384V18.4939C23.819 21.2699 21.527 23.6017 18.5256 24.9342C15.0877 26.4333 11.3769 26.3777 8.21175 25.0453C5.10121 23.7683 3.51865 20.1595 4.77378 16.9949C6.02891 13.7748 9.57602 12.2202 12.6866 13.4416Z" fill="#FD6B75"/>
</g>
<path d="M36.664 24.4885C40.7382 24.4885 43.3658 22.1381 43.3658 18.4785C43.3658 15.4437 41.8601 13.8074 37.4611 12.0817C34.4792 10.8916 33.5049 10.0288 33.5049 8.60068C33.5049 7.0833 34.7154 6.07172 36.5459 6.07172C37.9925 6.07172 39.2325 6.66677 40.0887 7.82711L42.362 5.77419C40.9744 4.0783 38.8487 3.12622 36.4278 3.12622C32.8259 3.12622 30.3164 5.44691 30.3164 8.8387C30.3164 11.6354 31.9402 13.3313 35.9554 14.8784C39.0849 16.0983 40.1773 17.0504 40.1773 18.5975C40.1773 20.3529 38.7601 21.4835 36.664 21.4835C34.5973 21.4835 33.003 20.4124 32.2059 18.538L29.4897 20.2041C30.7593 22.9116 33.3573 24.4885 36.664 24.4885Z" fill="#2E48CA"/>
<path d="M58.5983 17.1694C58.5392 13.0338 55.5279 10.0585 51.5422 10.0585C47.3203 10.0585 44.2499 13.2421 44.2499 17.2884C44.2499 21.305 47.1727 24.4885 51.6308 24.4885C54.3764 24.4885 56.7678 23.0009 57.8897 20.6802L55.2621 19.6091C54.4945 20.9777 53.1069 21.7513 51.5422 21.7513C49.3279 21.7513 47.5565 20.1446 47.3498 17.8239H58.5688L58.5983 17.1694ZM51.5127 12.766C53.3136 12.766 54.6421 13.8371 55.2326 15.4735H47.6451C48.2651 13.8669 49.6527 12.766 51.5127 12.766Z" fill="#2E48CA"/>
<path d="M66.8453 10.0883C65.2805 10.0883 64.0996 11.0106 63.3615 12.4387V10.3263H60.291V24.2207H63.3615V17.1099C63.3615 14.6404 64.8377 13.004 66.8157 13.004C67.2586 13.004 67.731 13.0933 68.0853 13.2718V10.3263C67.7605 10.2073 67.2881 10.0883 66.8453 10.0883Z" fill="#2E48CA"/>
<path d="M74.862 20.5314L71.1716 10.3263H67.865L73.3859 24.2207H76.3087L81.8591 10.3263H78.5525L74.862 20.5314Z" fill="#2E48CA"/>
<path d="M84.2745 6.87503C85.3078 6.87503 86.164 6.01221 86.164 5.00063C86.164 3.92954 85.3078 3.12622 84.2745 3.12622C83.2707 3.12622 82.385 3.92954 82.385 5.00063C82.385 6.01221 83.2707 6.87503 84.2745 6.87503ZM85.8097 24.2207V10.3263H82.7393V24.2207H85.8097Z" fill="#2E48CA"/>
<path d="M94.682 24.4885C97.6639 24.4885 100.232 22.8521 101.354 20.1744L98.5791 19.014C97.9591 20.5612 96.5125 21.6025 94.682 21.6025C92.202 21.6025 90.3716 19.7579 90.3716 17.2884C90.3716 14.7892 92.202 12.9743 94.682 12.9743C96.5125 12.9743 97.9591 14.0156 98.5791 15.5628L101.354 14.3727C100.232 11.6949 97.6639 10.0585 94.682 10.0585C90.5782 10.0585 87.3011 13.1826 87.3011 17.2884C87.3011 21.3645 90.5782 24.4885 94.682 24.4885Z" fill="#2E48CA"/>
<path d="M116.521 17.1694C116.462 13.0338 113.45 10.0585 109.465 10.0585C105.243 10.0585 102.172 13.2421 102.172 17.2884C102.172 21.305 105.095 24.4885 109.553 24.4885C112.299 24.4885 114.69 23.0009 115.812 20.6802L113.185 19.6091C112.417 20.9777 111.029 21.7513 109.465 21.7513C107.25 21.7513 105.479 20.1446 105.272 17.8239H116.491L116.521 17.1694ZM109.435 12.766C111.236 12.766 112.565 13.8371 113.155 15.4735H105.568C106.188 13.8669 107.575 12.766 109.435 12.766Z" fill="#2E48CA"/>
<path d="M129.255 15.3545C132.267 14.5512 133.654 12.7065 133.654 9.82053C133.654 6.27998 131.499 3.39399 126.834 3.39399H118.036V24.2207H123.174V16.009H123.646L129.403 24.2207H135.662L129.255 15.3545ZM123.174 7.88662H126.037C127.602 7.88662 128.547 8.42216 128.547 9.82053C128.547 11.2486 127.602 11.8139 126.037 11.8139H123.174V7.88662Z" fill="#2E48CA"/>
<path d="M142.325 24.4885C146.724 24.4885 150.12 21.3347 150.12 17.2884C150.12 13.2123 146.724 10.0585 142.325 10.0585C137.956 10.0585 134.531 13.2123 134.531 17.2884C134.531 21.3347 137.956 24.4885 142.325 24.4885ZM142.325 20.1446C140.731 20.1446 139.491 18.895 139.491 17.2884C139.491 15.6818 140.731 14.4322 142.325 14.4322C143.89 14.4322 145.16 15.6818 145.16 17.2884C145.16 18.895 143.89 20.1446 142.325 20.1446Z" fill="#2E48CA"/>
<path d="M158.206 24.4885C162.605 24.4885 166 21.3347 166 17.2884C166 13.2123 162.605 10.0585 158.206 10.0585C153.836 10.0585 150.412 13.2123 150.412 17.2884C150.412 21.3347 153.836 24.4885 158.206 24.4885ZM158.206 20.1446C156.611 20.1446 155.371 18.895 155.371 17.2884C155.371 15.6818 156.611 14.4322 158.206 14.4322C159.77 14.4322 161.04 15.6818 161.04 17.2884C161.04 18.895 159.77 20.1446 158.206 20.1446Z" fill="#2E48CA"/>
<defs>
<clipPath id="clip0">
<rect width="25.1832" height="28.6567" fill="white"/>
</clipPath>
</defs>
</svg>
