<svg xmlns="http://www.w3.org/2000/svg" viewBox="0 0 2202.96 1993.62"><defs><style>.cls-1{fill:#e22127;stroke:#fff;stroke-miterlimit:10;stroke-width:5px}.cls-2{fill:#fff}</style></defs><title>logo</title><g id="Layer_2" data-name="Layer 2"><g id="Layer_1-2" data-name="Layer 1"><path class="cls-1" d="M2200.46 1991.12H2.5V2.5h2197.96v1988.62z"/><path class="cls-2" d="M1014.29 1271.05c58 34.42 154.77 87 263.49 88.5h4.47c61.4 0 105.22-16.69 133.65-43 29.07-26.93 40.37-62.36 40.75-94.79-1.12-111.4-118.05-163.17-223.58-222.15C1125.74 940.73 1028 878.24 1028 767.55l.09-3.24c1.89-142.8 127.43-214.66 294.37-214.74h2.91c94.11.95 192.21 25.46 230.45 33.81l2.51.54v-35.55l-1.55-.38c-41.59-9.26-137.24-32.21-231-33.23l-6.63-.06c-85.62 0-164.53 16.92-224.29 55C1033.49 608.48 993.6 680.07 993 763.84v1.6c0 136 116.31 205.84 223.2 264.61 108.1 58.22 205.77 109.93 205.5 187.61l-.19 3.65c-2.29 49.46-28.39 102.89-143.13 103.43-106.55-1-207.78-60.06-261.73-92.91l-.64-.39-1.68 1.69v37.92z"/><path class="cls-2" d="M1328 601.69h.13c89.64.92 181.24 33.51 230 49.57h.15v-27.53c-51-16.86-139.23-45.26-229.83-46.33h-5.14c-62.31 0-121.11 11.21-165 40h.06c-45.09 29.19-76.7 78.2-77 141 .37 115.6 116.8 172.35 222.93 231.69 107.7 58.81 205.92 118.64 205.7 218.2v3.22c-2 100.36-77.35 176.63-231.47 176.79h-1.24c-109.12-1-219.55-50-261.26-70l-1.74-.87v29.3l.62.33c50.39 23.21 154.15 64.16 262.29 65.49h6.5c79.21 0 142.85-15.93 187.75-50.14 46.2-35.12 71.34-90.83 71.75-150.55v-.71c-.13-126.36-116.19-191-222.8-250-107.86-58.66-206-113.7-205.77-198.92v-3.44C1116 655 1207.3 601.76 1328 601.69z"/><path class="cls-2" d="M1408.84 921.17c-108.2-57.58-206.67-106.71-206-164.07l.18-3.56c1.42-63.54 47.78-88.92 120.64-89.79 84.08.76 171 39.22 231.85 63.6l.87.39 1.92-1.93V691l-1.15-.43C1497.49 666.49 1412.46 630.2 1324 629h-2.85c-39.61 0-76.48 8.29-105 28.12-29.35 20.19-48.15 53.69-48.24 96 2.85 96.15 118.75 138.61 223.79 198.51 106.68 59.14 204.91 127.5 204.87 246.91v3.17c-2.23 151.58-124.76 238.52-317 238.73h-2.94c-109.62-1.17-225.93-37.87-260.61-47l-1.8-.53v36l.62.15c40.79 11.36 152.88 44.88 261.36 46.06l8.08.05c97.85 0 182.43-20.78 244.51-63.73 63.7-43.83 102.1-122.32 102.81-209.36v-2.26c-.06-142.54-115.75-219.4-222.83-278.61zM313.68 1271.05c57.88 34.42 154.77 87 263.43 88.5h4.46c61.41 0 105.26-16.69 133.65-43 29.08-26.93 40.38-62.36 40.79-94.79-1.15-111.4-118-163.17-223.58-222.15-107.36-58.88-205.12-121.37-205-232.06v-3.24c2-142.8 127.39-214.66 294.34-214.74h3.06c94.05.95 192.18 25.46 230.36 33.81l2.51.54v-35.55l-1.55-.38c-41.56-9.26-137.25-32.21-230.92-33.23l-6.69-.06c-85.56 0-164.52 16.92-224.22 55C332.88 608.48 293 680.07 292.35 763.84v1.6c0 136 116.31 205.84 223.14 264.61 108.17 58.22 205.8 109.93 205.43 187.61l-.15 3.65c-2.27 49.46-28.31 102.89-143.13 103.43-106.5-1-207.69-60.06-261.64-92.91l-.65-.39-1.67 1.69v37.92z"/><path class="cls-2" d="M627.34 601.69h.22c89.49.92 181.24 33.51 230 49.57h.1v-27.53c-51-16.86-139.17-45.26-229.77-46.33h-5.17c-62.31 0-121.15 11.21-164.9 40-45.09 29.19-76.7 78.2-77.1 141 .46 115.6 116.89 172.35 223 231.69 107.61 58.83 205.71 118.66 205.65 218.22v3.22c-2 100.36-77.38 176.63-231.53 176.79h-1.24c-109.07-1-219.49-50-261.2-70l-1.77-.87v29.3l.59.33c50.38 23.21 154.12 64.16 262.28 65.49h6.6c79.18 0 142.75-15.93 187.72-50.14 46.14-35.12 71.34-90.83 71.74-150.55v-.71c-.12-126.36-116.18-191-222.76-250-107.87-58.64-206.07-113.68-205.8-198.9v-3.44c1.3-103.79 92.59-157.07 213.3-157.14z"/><path class="cls-2" d="M708.16 921.17C600 863.59 501.49 814.46 502.24 757.1l.06-3.56c1.48-63.54 47.87-88.92 120.7-89.79 84 .76 171 39.22 231.88 63.6l.81.39 2-1.93V691l-1.27-.43C796.88 666.49 711.78 630.2 623.38 629h-2.92c-39.57 0-76.39 8.29-104.94 28.12-29.36 20.19-48 53.69-48.28 96C470.12 849.21 586 891.67 691 951.57c106.77 59.14 205 127.5 204.9 246.91v3.17c-2.17 151.58-124.61 238.52-316.87 238.73h-3c-109.5-1.17-225.93-37.87-260.61-47l-1.74-.53v36l.5.15c40.81 11.36 153 44.88 261.48 46.06l8 .05c98 0 182.48-20.78 244.54-63.73C892 1367.57 930.29 1289.08 931 1202v-2.26c-.06-142.54-115.66-219.4-222.83-278.61zm1097.94 544.59h31.62V528.6h-31.62v937.16zm-72.71-935.21c9.39 197.36.41 901.05 0 934l1.27 1.31h34.5v-937.2h-33.79l-1.95 1.89zm177.1 0c-9.38 197.36-.28 901.05.12 934l-1.33 1.31h-34.4v-937.2h33.75l1.86 1.89z"/></g></g></svg>